<svg width="141" height="141" viewBox="0 0 141 141" fill="none" xmlns="http://www.w3.org/2000/svg">
<circle cx="70.5" cy="70.5" r="70.5" fill="white"/>
<path d="M33.28 66.28H46.76V71.32H33.28V66.28ZM33.76 77.8H49V83H27.32V55H48.48V60.2H33.76V77.8Z" fill="black"/>
<path d="M52.0406 83V79.24L64.7606 64.2L65.8406 66.28H52.3206V61.48H70.8806V65.24L58.1606 80.28L57.0406 78.2H71.2406V83H52.0406ZM85.6459 83.32C83.1926 83.32 81.0326 82.84 79.1659 81.88C77.3259 80.92 75.8993 79.6133 74.8859 77.96C73.8726 76.28 73.3659 74.3733 73.3659 72.24C73.3659 70.08 73.8593 68.1733 74.8459 66.52C75.8593 64.84 77.2326 63.5333 78.9659 62.6C80.6993 61.64 82.6593 61.16 84.8459 61.16C86.9526 61.16 88.8459 61.6133 90.5259 62.52C92.2326 63.4 93.5793 64.68 94.5659 66.36C95.5526 68.0133 96.0459 70 96.0459 72.32C96.0459 72.56 96.0326 72.84 96.0059 73.16C95.9793 73.4533 95.9526 73.7333 95.9259 74H78.4459V70.36H92.6459L90.2459 71.44C90.2459 70.32 90.0193 69.3467 89.5659 68.52C89.1126 67.6933 88.4859 67.0533 87.6859 66.6C86.8859 66.12 85.9526 65.88 84.8859 65.88C83.8193 65.88 82.8726 66.12 82.0459 66.6C81.2459 67.0533 80.6193 67.7067 80.1659 68.56C79.7126 69.3867 79.4859 70.3733 79.4859 71.52V72.48C79.4859 73.6533 79.7393 74.6933 80.2459 75.6C80.7793 76.48 81.5126 77.16 82.4459 77.64C83.4059 78.0933 84.5259 78.32 85.8059 78.32C86.9526 78.32 87.9526 78.1467 88.8059 77.8C89.6859 77.4533 90.4859 76.9333 91.2059 76.24L94.5259 79.84C93.5393 80.96 92.2993 81.8267 90.8059 82.44C89.3126 83.0267 87.5926 83.32 85.6459 83.32ZM100.2 83V61.48H106.16V67.56L105.32 65.8C105.96 64.28 106.987 63.1333 108.4 62.36C109.814 61.56 111.534 61.16 113.56 61.16V66.92C113.294 66.8933 113.054 66.88 112.84 66.88C112.627 66.8533 112.4 66.84 112.16 66.84C110.454 66.84 109.067 67.3333 108 68.32C106.96 69.28 106.44 70.7867 106.44 72.84V83H100.2Z" fill="#EA6413"/>
</svg>
